HIERARCHY
ROOT Hips
{
	OFFSET -0.179506 -22.333345 2.821913
	CHANNELS 6 Xposition Yposition Zposition Zrotation Yrotation Xrotation 
	JOINT LeftUpLeg
	{
		OFFSET 6.951974 -9.140623 -0.681533
		CHANNELS 3 Zrotation Yrotation Xrotation
		JOINT LeftLeg
		{
			OFFSET 3.427654 -37.519855 -0.449580
			CHANNELS 3 Zrotation Yrotation Xrotation
			JOINT LeftFoot
			{
				OFFSET -1.359570 -39.796059 -4.369333
				CHANNELS 3 Zrotation Yrotation Xrotation
				JOINT LeftToe
				{
					OFFSET 2.635814 -5.579078 11.928840
					CHANNELS 3 Zrotation Yrotation Xrotation
					End Site
					{
						OFFSET 0.000000 0.000000 0.000000
					}
				}
			}
		}
	}
	JOINT RightUpLeg
	{
		OFFSET -6.767048 -9.052170 -0.431982
		CHANNELS 3 Zrotation Yrotation Xrotation
		JOINT RightLeg
		{
			OFFSET -3.829005 -38.256897 -0.885003
			CHANNELS 3 Zrotation Yrotation Xrotation
			JOINT RightFoot
			{
				OFFSET 1.577377 -39.841461 -4.231180
				CHANNELS 3 Zrotation Yrotation Xrotation
				JOINT RightToe
				{
					OFFSET -2.537174 -4.814398 12.334795
					CHANNELS 3 Zrotation Yrotation Xrotation
					End Site
					{
						OFFSET 0.000000 0.000000 0.000000
					}
				}
			}
		}
	}
	JOINT Spine
	{
		OFFSET -0.253288 10.896323 -2.669631
		CHANNELS 3 Zrotation Yrotation Xrotation
		JOINT Spine1
		{
			OFFSET 0.548704 13.518043 0.109247
			CHANNELS 3 Zrotation Yrotation Xrotation
			JOINT Spine2
			{
				OFFSET 0.145701 5.292222 2.542457
				CHANNELS 3 Zrotation Yrotation Xrotation
				JOINT Neck
				{
					OFFSET -0.277840 21.387037 -4.285703
					CHANNELS 3 Zrotation Yrotation Xrotation
					JOINT Head
					{
						OFFSET 0.515184 6.496960 5.134897
						CHANNELS 3 Zrotation Yrotation Xrotation
						End Site
						{
							OFFSET 0.000000 0.000000 0.000000
						}
					}
				}
				JOINT LeftShoulder
				{
					OFFSET 7.884473 12.174932 -3.408961
					CHANNELS 3 Zrotation Yrotation Xrotation
					JOINT LeftArm
					{
						OFFSET 9.097692 3.046888 -0.886815
						CHANNELS 3 Zrotation Yrotation Xrotation
						JOINT LeftForeArm
						{
							OFFSET 25.961220 -1.277207 -2.745643
							CHANNELS 3 Zrotation Yrotation Xrotation
							JOINT LeftHand
							{
								OFFSET 24.923361 0.898606 -0.117091
								CHANNELS 3 Zrotation Yrotation Xrotation
								End Site
								{
									OFFSET 0.000000 0.000000 0.000000
								}
							}
						}
					}
				}
				JOINT RightShoulder
				{
					OFFSET -8.175920 11.883285 -3.861528
					CHANNELS 3 Zrotation Yrotation Xrotation
					JOINT RightArm
					{
						OFFSET -9.601238 3.255117 -0.914307
						CHANNELS 3 Zrotation Yrotation Xrotation
						JOINT RightForeArm
						{
							OFFSET -25.374195 -1.332924 -2.140099
							CHANNELS 3 Zrotation Yrotation Xrotation
							JOINT RightHand
							{
								OFFSET -25.529810 0.777228 -0.555919
								CHANNELS 3 Zrotation Yrotation Xrotation
								End Site
								{
									OFFSET 0.000000 0.000000 0.000000
								}
							}
						}
					}
				}
			}
		}
	}
}
MOTION
Frames: 13
Frame Time: 0.033333
-0.179506 102.862503 2.821913 0.637637 -15.252091 -0.366944 -3.992094 0.591580 0.832847 0.015038 -3.612056 -3.519952 0.688658 7.643951 -7.395665 1.728331 2.222163 1.638203 1.258906 -2.613489 -1.559507 -1.503142 -3.085622 0.728324 1.313409 -10.905288 -9.947549 1.955041 -1.545522 0.535720 -2.665788 2.539019 1.869886 2.220356 -0.885665 4.829359 -4.483682 -0.470229 -5.033328 -0.971724 -3.468125 2.390078 -1.664815 -7.108262 5.306802 -19.238419 3.512980 0.766528 -33.181946 -3.357119 14.113370 -13.350536 -33.704458 22.400939 -10.717409 -11.311804 7.212346 17.435342 1.563429 -0.855630 39.887993 -1.156841 20.580361 15.507710 40.187743 20.546398 11.694701 8.785685 -1.140149 
-0.204430 102.856949 2.893197 0.679900 -15.001116 -0.329920 -4.043399 0.604151 0.934529 0.049576 -3.620955 -3.729895 0.685451 7.511351 -7.321782 1.723755 2.204387 1.644231 1.264060 -2.635816 -1.507102 -1.565399 -3.022112 0.670925 1.221505 -11.150824 -9.969165 1.932096 -1.539761 0.532122 -2.656887 2.526264 1.920134 2.205516 -0.800826 4.813032 -4.484037 -0.459901 -5.013837 -0.989847 -3.574660 2.318935 -1.721795 -7.196785 5.222050 -19.201912 3.561516 0.695639 -33.193409 -3.333413 14.250735 -13.440875 -34.038948 22.745895 -10.951065 -11.285488 7.268224 17.381804 1.539973 -0.815156 39.905104 -1.242595 20.659214 15.606410 39.974724 20.722137 12.102406 8.693250 -1.092908 
-0.270489 102.851814 2.934291 0.747987 -14.720905 -0.283906 -4.073657 0.607972 0.999716 0.074320 -3.663729 -3.924871 0.600745 7.354755 -7.259565 1.743127 2.211381 1.646012 1.266149 -2.643454 -1.479998 -1.616512 -2.933367 0.622013 1.129594 -11.396246 -10.015699 1.919689 -1.531297 0.548387 -2.660697 2.525158 1.992454 2.194135 -0.744405 4.817598 -4.484113 -0.438555 -5.038062 -1.014345 -3.713527 2.269238 -1.711988 -7.319910 5.034520 -19.169727 3.587223 0.638275 -33.165277 -3.304432 14.390205 -13.536133 -34.395892 23.001076 -11.211598 -11.265415 7.335511 17.328521 1.538649 -0.731595 39.935378 -1.358650 20.707109 15.763989 39.875661 20.888454 12.423503 8.552590 -0.996463 
-0.270805 102.846558 2.965700 0.758706 -14.510503 -0.238707 -4.105296 0.578972 1.025972 0.111404 -3.652530 -4.043583 0.568958 7.261718 -7.235861 1.733868 2.213700 1.648006 1.258705 -2.646318 -1.486764 -1.629481 -2.841018 0.620860 1.062036 -11.576423 -10.022950 1.906673 -1.515138 0.563919 -2.684503 2.541590 2.041130 2.201036 -0.706640 4.822273 -4.474746 -0.429437 -5.043655 -0.998024 -3.843088 2.202753 -1.704577 -7.455635 4.989150 -19.176643 3.602677 0.620961 -33.168291 -3.330011 14.509103 -13.647520 -34.684225 23.132515 -11.253863 -11.268006 7.416493 17.334582 1.528263 -0.676375 39.886906 -1.395426 20.767768 15.834418 39.716064 20.927455 12.532979 8.489598 -0.846038 
-0.269067 102.840858 2.971753 0.789361 -14.317253 -0.240523 -4.145987 0.519030 1.050674 0.133343 -3.694644 -4.104162 0.552562 7.225264 -7.225267 1.726193 2.226738 1.653268 1.233022 -2.607689 -1.468708 -1.650063 -2.731222 0.629468 0.991318 -11.774364 -10.036448 1.894472 -1.509954 0.574471 -2.706164 2.548638 2.098991 2.206886 -0.708500 4.802824 -4.477601 -0.428339 -5.037458 -0.994255 -3.938496 2.156394 -1.715270 -7.604508 4.962371 -19.157367 3.621577 0.621236 -33.185778 -3.385360 14.626876 -13.810717 -34.857262 23.446916 -11.202034 -11.224905 7.561285 17.330309 1.513424 -0.643461 39.842192 -1.408130 20.812796 15.977996 39.629364 21.147059 12.464579 8.416636 -0.628301 
-0.255944 102.835014 2.995044 0.821388 -14.109555 -0.236896 -4.188231 0.487751 1.063651 0.136302 -3.762571 -4.132217 0.543017 7.162862 -7.237432 1.725834 2.230227 1.642752 1.198488 -2.593338 -1.440672 -1.670596 -2.660767 0.628077 0.920576 -11.954091 -10.054504 1.897754 -1.480922 0.584273 -2.712109 2.543746 2.147957 2.222657 -0.716078 4.762668 -4.478870 -0.437614 -5.031590 -0.981049 -3.997726 2.123462 -1.755938 -7.731933 4.993677 -19.152604 3.643021 0.628122 -33.215461 -3.434698 14.763893 -14.014959 -34.998821 23.822987 -11.182265 -11.223189 7.724895 17.374375 1.468403 -0.595615 39.706232 -1.413937 20.856641 16.160343 39.572797 21.384265 12.385337 8.416243 -0.434065 
-0.278972 102.828995 2.975114 0.892986 -13.983499 -0.278106 -4.241015 0.445690 1.088495 0.144192 -3.871845 -4.149767 0.535593 7.170075 -7.234992 1.686283 2.239330 1.668899 1.178397 -2.551495 -1.443314 -1.734222 -2.610338 0.693943 0.846217 -12.112906 -10.121285 1.896180 -1.509537 0.556439 -2.708831 2.541281 2.187780 2.224212 -0.755464 4.773824 -4.481071 -0.437572 -5.057928 -1.028589 -4.087501 2.069567 -1.777048 -7.833012 4.942413 -19.126206 3.622381 0.648099 -33.227383 -3.461248 14.935024 -14.187409 -35.098255 24.188213 -11.184891 -11.150820 7.865475 17.365255 1.485029 -0.555248 39.621519 -1.441196 20.895960 16.404644 39.704906 21.668451 12.378721 8.403762 -0.343977 
-0.300110 102.823013 2.925060 0.934093 -13.864210 -0.309401 -4.276312 0.437031 1.072165 0.177288 -3.941300 -4.133061 0.520054 7.150613 -7.258999 1.644096 2.234146 1.687948 1.195813 -2.542181 -1.471581 -1.790611 -2.595908 0.753541 0.765625 -12.238019 -10.161576 1.907059 -1.530381 0.545704 -2.687532 2.533872 2.213821 2.255590 -0.782328 4.781168 -4.487611 -0.452786 -5.091180 -1.072784 -4.183291 2.035940 -1.813732 -7.870201 4.927443 -19.113088 3.569336 0.665890 -33.249313 -3.536858 15.065416 -14.362120 -35.092806 24.457004 -11.128528 -11.150101 7.859597 17.362940 1.512678 -0.534582 39.526692 -1.454066 20.953013 16.596687 39.835874 21.766888 12.259251 8.473399 -0.410479 
-0.329104 102.817123 2.870060 0.948409 -13.847175 -0.314489 -4.292142 0.425449 1.043446 0.229785 -3.931923 -4.130166 0.499767 7.150786 -7.290459 1.620810 2.213190 1.696273 1.253146 -2.526910 -1.572914 -1.854739 -2.652886 0.882398 0.753550 -12.274629 -10.248093 1.903693 -1.533244 0.547562 -2.658709 2.529902 2.238832 2.277053 -0.807710 4.804852 -4.479149 -0.470624 -5.125650 -1.091442 -4.354731 1.991986 -1.811099 -7.888970 4.900463 -19.135969 3.508016 0.705202 -33.268867 -3.608020 15.102541 -14.421080 -35.032686 24.467647 -11.015724 -11.140192 7.841426 17.397381 1.570874 -0.519830 39.411157 -1.430079 20.993834 16.770331 39.989234 21.889831 12.213890 8.492544 -0.388465 
-0.361307 102.811295 2.801534 0.916298 -13.843868 -0.306485 -4.261360 0.450218 1.013823 0.284261 -3.796738 -4.141613 0.448096 7.077342 -7.346125 1.641705 2.194342 1.678786 1.352252 -2.508899 -1.715495 -1.895549 -2.738816 1.062709 0.752958 -12.293139 -10.336468 1.881446 -1.483158 0.569263 -2.640872 2.521459 2.215637 2.307634 -0.840995 4.811196 -4.452428 -0.488345 -5.152793 -1.053193 -4.466569 1.946184 -1.776809 -7.928779 4.917481 -19.162022 3.420030 0.736537 -33.274256 -3.661316 15.090752 -14.488827 -34.948510 24.472747 -10.980466 -11.116452 7.802054 17.483721 1.623802 -0.518517 39.281024 -1.368209 21.031932 16.898044 40.059985 21.964400 12.256313 8.520855 -0.385429 
-0.405045 102.805489 2.721609 0.875292 -13.869409 -0.345777 -4.225382 0.464713 1.006882 0.372789 -3.730153 -4.101203 0.424409 7.045274 -7.433033 1.684974 2.162964 1.662025 1.488877 -2.454499 -1.805510 -1.977177 -2.792660 1.239010 0.783691 -12.331321 -10.449452 1.857955 -1.444460 0.586517 -2.602627 2.516247 2.263273 2.323296 -0.897918 4.774544 -4.412956 -0.494402 -5.153789 -1.012262 -4.462917 1.925985 -1.770999 -7.898795 5.021028 -19.183221 3.301425 0.734682 -33.324533 -3.707911 15.036322 -14.470837 -34.794883 24.484034 -10.999132 -11.017638 7.914930 17.598767 1.672233 -0.541801 39.180462 -1.313200 21.006301 16.922775 40.170463 21.966197 12.393712 8.490273 -0.402100 
-0.488662 102.799965 2.690605 0.827791 -13.911053 -0.390600 -4.160009 0.525857 1.077047 0.449777 -3.628817 -4.114645 0.406640 6.993033 -7.523628 1.722881 2.104924 1.659366 1.621510 -2.382518 -1.896124 -2.013014 -2.774648 1.511816 0.736898 -12.392717 -10.592184 1.856499 -1.423640 0.599362 -2.560305 2.481365 2.393447 2.363204 -0.953453 4.656542 -4.360377 -0.517329 -5.124765 -0.980287 -4.491501 1.868183 -1.765030 -7.859746 5.096333 -19.161680 3.198636 0.704584 -33.475084 -3.775661 14.927540 -14.449173 -34.512222 24.564043 -10.867985 -10.924561 7.964726 17.698065 1.656718 -0.580080 39.120688 -1.245853 20.962644 16.944239 40.304743 21.961485 12.422144 8.472059 -0.440230 
-0.569582 102.795319 2.607312 0.771982 -13.937091 -0.438507 -4.065683 0.619397 1.097539 0.496543 -3.449600 -4.087282 0.341962 6.857671 -7.628695 1.766730 2.038895 1.681576 1.753776 -2.302871 -2.047672 -2.018023 -2.771969 1.841533 0.648809 -12.450520 -10.703190 1.871498 -1.422758 0.615692 -2.489237 2.429162 2.605864 2.418339 -0.993498 4.503053 -4.295465 -0.553686 -5.055840 -0.954659 -4.374141 1.793738 -1.800790 -7.719409 5.255006 -19.186737 2.997384 0.608972 -33.575069 -3.952759 14.745926 -14.569445 -34.255079 24.676303 -10.749236 -10.870885 8.017487 17.798975 1.685148 -0.644977 39.013835 -1.093729 20.905495 17.006550 40.433813 21.933701 12.467653 8.468520 -0.527454 
